<?xml version="1.0" encoding="UTF-8" standalone="no"?>
<svg
   xmlns:dc="http://purl.org/dc/elements/1.1/"
   xmlns:cc="http://creativecommons.org/ns#"
   xmlns:rdf="http://www.w3.org/1999/02/22-rdf-syntax-ns#"
   xmlns:svg="http://www.w3.org/2000/svg"
   xmlns="http://www.w3.org/2000/svg"
   xmlns:sodipodi="http://sodipodi.sourceforge.net/DTD/sodipodi-0.dtd"
   xmlns:inkscape="http://www.inkscape.org/namespaces/inkscape"
   version="1.1"
   x="0px"
   y="0px"
   viewBox="0 0 199.4 153.9"
   enable-background="new 0 0 226.8 226.8"
   xml:space="preserve"
   id="svg2"
   inkscape:version="0.48.5 r10040"
   width="100%"
   height="100%"
   sodipodi:docname="noun_315147_cc.svg"><metadata
     id="metadata18"><rdf:RDF><cc:Work
         rdf:about=""><dc:format>image/svg+xml</dc:format><dc:type
           rdf:resource="http://purl.org/dc/dcmitype/StillImage" /><dc:title></dc:title></cc:Work></rdf:RDF></metadata><defs
     id="defs16" /><sodipodi:namedview
     pagecolor="#ffffff"
     bordercolor="#666666"
     borderopacity="1"
     objecttolerance="10"
     gridtolerance="10"
     guidetolerance="10"
     inkscape:pageopacity="0"
     inkscape:pageshadow="2"
     inkscape:window-width="1914"
     inkscape:window-height="1026"
     id="namedview14"
     showgrid="false"
     fit-margin-top="0"
     fit-margin-left="0"
     fit-margin-right="0"
     fit-margin-bottom="0"
     inkscape:zoom="1.664903"
     inkscape:cx="143.86178"
     inkscape:cy="-48.441931"
     inkscape:window-x="0"
     inkscape:window-y="0"
     inkscape:window-maximized="0"
     inkscape:current-layer="svg2" /><path
     style="fill:#ffffff;fill-opacity:1"
     d="m 173.2,153.9 c -11.8,-9.16667 -23.6,-18.33333 -35.4,-27.5 -40.247097,-0.0649 -80.500743,0.13008 -120.743727,-0.098 C 6.0266041,125.52154 -1.3980547,114.39626 -1.5258789e-6,103.87362 0.06470373,74.935314 -0.1298373,45.990472 0.09802094,17.056274 0.87846237,6.0266061 12.003734,-1.3980533 22.526375,0 75.798006,0.06517052 129.07621,-0.1304592 182.34373,0.09802246 193.37339,0.87846391 200.79805,12.003736 199.4,22.526377 c -0.0647,28.938309 0.12984,57.883151 -0.098,86.817353 -0.78044,11.02966 -11.90572,18.45432 -22.42836,17.05627 -4.50242,-1.43073 -3.81244,2.33093 -3.67362,5.54145 0,7.31952 0,14.63903 0,21.95855 z M 18.999998,9.9 c -7.980823,-0.1402375 -9.8330595,8.325117 -9.0999995,14.641449 0,27.619517 0,55.239034 0,82.858551 -0.1402378,7.98082 8.3251165,9.83306 14.6414485,9.1 39.552851,0 79.105703,0 118.658553,0 6.63333,5.03333 13.26667,10.06667 19.9,15.1 0,-5.03333 0,-10.06667 0,-15.1 6.898,-0.3268 13.9772,0.74333 20.73125,-0.71875 7.50555,-3.23415 5.19604,-12.00637 5.56875,-18.456612 0,-26.108213 0,-52.216425 0,-78.324638 0.14024,-7.980824 -8.32512,-9.8330601 -14.64145,-9.1 -51.91952,0 -103.839034,0 -155.758552,0 z"
     id="path4"
     inkscape:connector-curvature="0" /><path
     style="fill:#ffffff;fill-opacity:1"
     d="M 132,70.2 C 129.77844,89.315295 108.45828,102.87722 90.198103,96.842661 79.692282,93.774518 71.00845,85.138367 67.999998,74.6 c 2.568116,1.763245 5.415266,4.991042 6.76771,0.373662 3.782507,-3.017256 -0.563322,-4.471906 -3.060535,-6.281938 C 67.804781,66.027816 63.90239,63.363908 59.999998,60.7 c -2.866667,6.033333 -5.733333,12.066667 -8.6,18.1 2.566636,0.534828 6.563032,5.122924 7.3914,0.729889 2.463183,-7.374173 3.559311,7.414627 7.028912,8.951361 11.771736,17.96505 38.38337,23.33998 56.04859,10.969168 C 131.48951,93.16961 138.29968,82.701919 139.9,71.3 137.26667,70.933333 134.63333,70.566667 132,70.2 z"
     id="path6"
     inkscape:connector-curvature="0" /><path
     style="fill:#ffffff;fill-opacity:1"
     d="M 67.399998,57.1 C 69.621561,37.984706 90.941717,24.422779 109.20189,30.457339 119.70772,33.525482 128.39155,42.161633 131.4,52.7 c -2.56812,-1.763245 -5.41527,-4.991042 -6.76771,-0.373662 -3.78586,3.022186 0.57014,4.461869 3.07445,6.261459 3.89776,2.637401 7.79551,5.274802 11.69326,7.912203 2.86667,-6.033333 5.73333,-12.066667 8.6,-18.1 -2.56664,-0.534828 -6.56303,-5.122924 -7.3914,-0.729889 -2.46318,7.374173 -3.55931,-7.414627 -7.02891,-8.951361 C 121.80795,20.7537 95.196321,15.378766 77.531095,27.749582 67.910491,34.030391 61.100321,44.498081 59.499998,55.9 c 2.633333,0.4 5.266667,0.8 7.9,1.2 z"
     id="path8"
     inkscape:connector-curvature="0" /></svg>